<?xml version="1.0" encoding="utf-8"?>
<!-- Generator: Adobe Illustrator 24.0.1, SVG Export Plug-In . SVG Version: 6.00 Build 0)  -->
<svg version="1.1" id="Layer_1" xmlns="http://www.w3.org/2000/svg" xmlns:xlink="http://www.w3.org/1999/xlink" x="0px" y="0px"
	 viewBox="0 0 144 144" style="enable-background:new 0 0 144 144;" xml:space="preserve">
<style type="text/css">
	.st0{fill:#FF8FFA;}
</style>
<path class="st0" d="M139.9,51.3l-38.3-38.3C98.8,10.3,95.5,9,92,9s-6.8,1.2-9.5,3.9L34.4,61.2L3.9,91.7C1.2,94.4,0,97.9,0,101.2
	c0,3.5,1.2,6.8,3.9,9.5l17.6,17.6c4.4,4.1,9.9,6.6,16,6.6h28.6c6,0,11.6-2.3,16-6.6l9.7-9.7l0,0l48.3-48.3c2.7-2.7,3.9-6.2,3.9-9.5
	C143.8,57.3,142.5,54,139.9,51.3z M133.6,63.9l-45.2,45.2L43.9,64.5l45.2-45.2c0.8-0.8,2.1-1.2,3.1-1.2c1.2,0,2.3,0.4,3.1,1.2
	l38.3,38.3c0.8,0.8,1.2,2.1,1.2,3.1C134.9,62.1,134.5,63.1,133.6,63.9z"/>
</svg>
